<?xml version="1.0" encoding="utf-8"?>
<!-- Generator: Adobe Illustrator 16.0.0, SVG Export Plug-In . SVG Version: 6.00 Build 0)  -->
<!DOCTYPE svg PUBLIC "-//W3C//DTD SVG 1.1//EN" "http://www.w3.org/Graphics/SVG/1.1/DTD/svg11.dtd">
<svg version="1.1" id="Layer_1" xmlns="http://www.w3.org/2000/svg" xmlns:xlink="http://www.w3.org/1999/xlink" x="0px" y="0px"
	 width="38.109px" height="40.746px" viewBox="0 0 38.109 40.746" enable-background="new 0 0 38.109 40.746" xml:space="preserve">
<g>
	<path d="M38.109,20.32c0,6.398-1.688,11.403-5.062,15.012c-3.375,3.609-8.074,5.414-14.098,5.414c-3.774,0-7.102-0.826-9.984-2.479
		s-5.098-4.025-6.645-7.119S0,24.446,0,20.32C0,13.899,1.675,8.907,5.027,5.344C8.379,1.781,13.09,0,19.16,0
		c3.773,0,7.102,0.821,9.984,2.461c2.883,1.641,5.098,3.996,6.645,7.066C37.336,12.598,38.109,16.195,38.109,20.32z M10.934,20.32
		c0,3.891,0.638,6.833,1.916,8.824c1.277,1.992,3.357,2.988,6.24,2.988c2.859,0,4.916-0.99,6.17-2.971
		c1.253-1.98,1.881-4.927,1.881-8.842c0-3.89-0.633-6.808-1.898-8.754c-1.266-1.945-3.34-2.918-6.223-2.918
		c-2.86,0-4.922,0.967-6.188,2.9S10.934,16.406,10.934,20.32z"/>
</g>
</svg>
